<?xml version="1.0" encoding="UTF-8"?>
<svg xmlns="http://www.w3.org/2000/svg" version="1.1" viewBox="0 0 500 500">
  <ellipse style="fill: rgb(13, 108, 68); fill-rule: nonzero;" cx="250" cy="250" rx="250" ry="250"/>
  <path fill="#f5f4ef" d="M 122.275 358.157 C 122.1 358.739 122.125 359.079 122.348 359.176 C 123.267 361.715 124.714 364.19 125.452 366.565 C 130.874 384.091 121.93 400.962 105.287 407.832 C 101.082 409.57 96.915 409.87 92.192 409.788 C 76.286 409.515 63.283 397.294 61.135 381.998 C 58.687 364.509 68.56 348.33 86.732 344.844 C 91.919 343.852 94.731 342.478 97.37 338.193 C 133.168 280.094 161.51 234.126 182.397 200.287 C 186.655 193.381 185.446 184.245 182.333 177.111 C 181.12 174.332 177.644 169.973 171.905 164.035 C 158.754 150.433 149.787 141.209 145.007 136.362 C 141.021 132.322 136.917 128.892 131.075 129.665 C 130.948 129.684 128.351 130.074 123.286 130.839 C 118.415 131.579 113.153 130.803 107.497 128.51 C 85.677 119.665 78.516 92.711 93.794 74.413 C 105.559 60.317 126.598 58.561 140.775 69.753 C 149.256 76.45 153.706 85.969 153.887 96.934 C 153.942 100.319 154.125 103.522 156.318 106.107 C 159.785 110.21 164.434 114.633 167.419 117.699 C 188.779 139.677 199.647 150.855 200.023 151.231 C 205.465 156.612 209.881 162.93 213.272 170.186 C 248.93 246.41 274.476 300.941 289.909 333.779 C 296.433 347.665 309.564 357.684 325.288 357.702 C 357.538 357.72 374.752 357.741 376.929 357.766 C 383.563 357.839 385.473 353.871 388.895 351.068 C 398.731 343.006 412.735 341.741 423.664 347.647 C 440.654 356.828 445.495 378.349 435.748 394.419 C 428.114 407.012 413.172 412.691 398.604 408.314 C 392.08 406.357 385.191 400.725 381.897 395.338 C 379.84 391.981 378.84 389.15 375.455 387.685 C 374.338 387.199 372.179 386.917 368.975 386.839 C 361.386 386.657 342.022 387.412 322.322 386.721 C 304.241 386.074 287.225 376.875 275.904 363.489 C 270.13 356.658 265.082 348.657 260.762 339.484 C 227.277 268.355 210.327 232.373 209.914 231.535 C 208.758 229.142 207.867 226.722 205.646 225.666 C 202.489 224.165 200.023 226.658 198.512 229.152 C 194.952 235.024 170.783 274.394 126.006 347.264 C 123.895 350.704 121.967 354.108 122.275 358.157 Z M 104.676 94.09 C 103.328 101.895 108.803 109.357 116.905 110.756 C 120.795 111.428 124.785 110.583 127.993 108.409 C 131.202 106.234 133.368 102.906 134.016 99.158 C 135.364 91.353 129.888 83.892 121.787 82.493 C 117.896 81.821 113.907 82.665 110.699 84.84 C 107.49 87.015 105.323 90.343 104.676 94.09 Z M 106.874 374.487 C 105.443 367.188 98.189 362.467 90.674 363.941 C 83.159 365.416 78.226 372.528 79.657 379.826 C 81.09 387.126 88.343 391.847 95.86 390.373 C 103.375 388.897 108.307 381.786 106.874 374.487 Z M 394.356 376.157 C 394.095 379.71 395.305 383.224 397.718 385.927 C 400.134 388.63 403.554 390.3 407.23 390.57 C 410.905 390.84 414.534 389.687 417.318 387.366 C 420.1 385.045 421.811 381.745 422.071 378.193 C 422.614 370.795 416.85 364.342 409.197 363.779 C 405.522 363.511 401.894 364.662 399.11 366.984 C 396.326 369.305 394.616 372.604 394.356 376.157 Z" style=""/>
</svg>